<svg width="568px" height="568px" viewBox="0 0 568 568" version="1.1" xmlns="http://www.w3.org/2000/svg" xmlns:xlink="http://www.w3.org/1999/xlink">
    <defs>
        <linearGradient x1="50%" y1="0%" x2="50%" y2="100%" id="linearGradient-1">
            <stop stop-color="#FFFFFF" offset="0%"></stop>
            <stop stop-color="#FAFAFA" offset="100%"></stop>
        </linearGradient>
        <circle id="path-2" cx="300" cy="300" r="279.146919"></circle>
        <filter x="-50%" y="-50%" width="200%" height="200%" filterUnits="objectBoundingBox" id="filter-3">
            <feMorphology radius="0.5" operator="dilate" in="SourceAlpha" result="shadowSpreadOuter1"></feMorphology>
            <feOffset dx="0" dy="0" in="shadowSpreadOuter1" result="shadowOffsetOuter1"></feOffset>
            <feGaussianBlur stdDeviation="1.5" in="shadowOffsetOuter1" result="shadowBlurOuter1"></feGaussianBlur>
            <feComposite in="shadowBlurOuter1" in2="SourceAlpha" operator="out" result="shadowBlurOuter1"></feComposite>
            <feColorMatrix values="0 0 0 0 0   0 0 0 0 0   0 0 0 0 0  0 0 0 0.311509284 0" type="matrix" in="shadowBlurOuter1"></feColorMatrix>
        </filter>
        <mask id="mask-4" maskContentUnits="userSpaceOnUse" maskUnits="objectBoundingBox" x="0" y="0" width="558.293839" height="558.293839" fill="white">
            <use xlink:href="#path-2"></use>
        </mask>
        <path d="M409.478673,84.8856249 L409.478673,0.097343664 L121.956398,0.097343664 L121.956398,84.8856249 L145.123791,84.8856249 L145.123791,95.9687035 L105.509005,95.9687035 L105.863886,33.8060996 L104.280569,18.9604159 L102.083033,14.4562091 L99.3395261,12.5635323 L88.665782,11.0484809 L70.2938389,10.0884934 L42.8860664,11.6035447 L31.5162085,13.6600109 L27.5533649,16.1077516 L24.5323223,19.9249531 L0,67.7832881 L0,128.931308 L0.0318483412,128.931308 L14.0132701,128.931308 L14.6957346,121.688179 L16.6248341,114.836325 L19.9052133,108.421243 L24.1637915,102.679517 L29.5006635,97.7658365 L35.6655924,93.9349859 L42.3901422,91.3234559 L49.5014218,90.0950358 L56.6127014,90.0950358 L63.7376303,91.3234559 L73.6106161,95.7139201 L81.963981,102.679517 L86.3545024,108.421243 L90.7268246,118.257703 L92.2282464,128.931308 L261.201896,128.931308 L262.84891,118.257703 L265.592417,111.701579 L271.757346,102.957049 L279.983318,96.1233934 L289.851754,91.751128 L296.981232,90.5181583 L304.078863,90.5181583 L311.208341,91.751128 L320.949384,96.1233934 L329.302749,102.957049 L335.467678,111.701579 L339.025592,121.824671 L339.708057,128.931308 L398.227109,128.931308 L398.227109,95.9641538 L369.172322,95.9641538 L369.172322,84.8810752 L409.478673,84.8810752 L409.478673,84.8856249 Z M80.7264455,67.7832881 L17.2754502,67.7832881 L37.6856872,27.8459875 L80.7264455,27.8459875 L80.7264455,67.7832881 L80.7264455,67.7832881 Z" id="path-5"></path>
        <filter x="-50%" y="-50%" width="200%" height="200%" filterUnits="objectBoundingBox" id="filter-6">
            <feOffset dx="0" dy="2" in="SourceAlpha" result="shadowOffsetOuter1"></feOffset>
            <feGaussianBlur stdDeviation="2" in="shadowOffsetOuter1" result="shadowBlurOuter1"></feGaussianBlur>
            <feColorMatrix values="0 0 0 0 0   0 0 0 0 0   0 0 0 0 0  0 0 0 0.5 0" type="matrix" in="shadowBlurOuter1"></feColorMatrix>
        </filter>
        <path d="M168.16333,358.34668 C168.127848,361.859393 167.622238,364.972887 166.646484,367.687256 C165.670731,370.401625 164.313567,372.743398 162.574951,374.712646 C160.836336,376.681895 158.796154,378.349521 156.454346,379.715576 C154.112537,381.081631 151.593357,382.181555 148.896729,383.015381 C146.2001,383.849207 143.370458,384.381428 140.407715,384.612061 C137.444972,384.842693 134.473404,384.958008 131.49292,384.958008 C126.099664,384.958008 121.362895,384.745119 117.282471,384.319336 C114.940662,384.03548 111.445743,383.254889 106.797607,381.977539 C103.001039,380.948563 100.0206,379.866379 97.8562012,378.730957 L97.8562012,357.708008 L113.876221,357.708008 C115.721282,360.262708 117.805815,362.143223 120.129883,363.349609 C122.45395,364.555996 124.840076,365.15918 127.28833,365.15918 C127.927005,365.15918 128.636633,365.105958 129.417236,364.999512 C130.197839,364.893066 130.934079,364.591474 131.625977,364.094727 C132.317875,363.597979 132.903318,362.817388 133.382324,361.75293 C133.861331,360.688471 134.10083,359.198252 134.10083,357.282227 C131.049383,356.998371 128.024592,356.590335 125.026367,356.058105 C122.028143,355.525876 119.163018,354.798507 116.430908,353.875977 C113.698798,352.953446 111.153007,351.79143 108.793457,350.389893 C106.433907,348.988356 104.393726,347.294118 102.672852,345.307129 C100.951977,343.32014 99.6036833,340.987237 98.6279297,338.30835 C97.6521761,335.629463 97.1643066,332.533709 97.1643066,329.020996 C97.1643066,325.25991 97.6610465,321.951268 98.654541,319.094971 C99.6480356,316.238674 101.0052,313.772715 102.726074,311.697021 C104.446949,309.621328 106.469389,307.900479 108.793457,306.534424 C111.117525,305.168369 113.618964,304.077315 116.297852,303.26123 C118.976739,302.445146 121.76203,301.930665 124.653809,301.717773 C127.545587,301.504882 130.428452,301.398438 133.30249,301.398438 C137.48936,301.398438 141.259261,301.549234 144.612305,301.85083 C147.965349,302.152427 150.99014,302.622555 153.686768,303.26123 C156.383396,303.899906 158.769521,304.618404 160.845215,305.416748 C162.920909,306.215092 164.774813,306.986813 166.406982,307.731934 L166.406982,328.48877 L150.386963,328.48877 C148.577384,325.934069 146.563813,324.053554 144.346191,322.847168 C142.12857,321.640782 139.848889,321.037598 137.50708,321.037598 C136.868405,321.037598 136.141036,321.117431 135.324951,321.2771 C134.508866,321.436768 133.746016,321.809323 133.036377,322.394775 C132.326738,322.980228 131.723554,323.831782 131.226807,324.949463 C130.730059,326.067144 130.481689,327.583975 130.481689,329.5 C136.69103,329.712892 142.155168,330.387039 146.874268,331.522461 C151.593367,332.657883 155.522934,334.369862 158.663086,336.658447 C161.803238,338.947033 164.171623,341.87425 165.768311,345.440186 C167.364998,349.006121 168.16333,353.308243 168.16333,358.34668 L168.16333,358.34668 Z M249.11499,302.25 L249.11499,329.5 L240.173584,329.5 C239.570391,328.719397 238.878503,327.921065 238.0979,327.10498 C237.317298,326.288896 236.448003,325.552656 235.48999,324.89624 C234.531978,324.239824 233.485276,323.707603 232.349854,323.299561 C231.214431,322.891518 229.990322,322.6875 228.67749,322.6875 L228.67749,359.570801 L235.48999,360.901367 L235.48999,384 L187.80249,384 L187.80249,360.901367 L194.61499,359.570801 L194.61499,322.6875 C193.302158,322.6875 192.078049,322.891518 190.942627,323.299561 C189.807205,323.707603 188.760503,324.239824 187.80249,324.89624 C186.844478,325.552656 185.975183,326.288896 185.19458,327.10498 C184.413977,327.921065 183.72209,328.719397 183.118896,329.5 L174.17749,329.5 L174.17749,302.25 L249.11499,302.25 Z M256.459717,302.25 L304.147217,302.25 L304.147217,325.348633 L297.334717,326.679199 L297.334717,359.570801 L304.147217,360.901367 L304.147217,384 L256.459717,384 L256.459717,360.901367 L263.272217,359.570801 L263.272217,326.679199 L256.459717,325.348633 L256.459717,302.25 Z M340.232178,384.053223 L318.464111,326.625977 L310.374268,325.348633 L310.374268,302.25 L360.084229,302.25 L360.084229,325.348633 L354.229736,326.625977 L363.437256,356.909668 L372.644775,326.625977 L366.790283,325.348633 L366.790283,302.25 L407.931396,302.25 L407.931396,325.348633 L399.894775,326.625977 L378.126709,384.053223 L340.232178,384.053223 Z M469.989014,384 L467.11499,370.268555 L444.86792,370.268555 L442.047119,384 L411.763428,384 L411.763428,357.175781 L418.309814,355.845215 L434.010498,302.25 L477.972412,302.25 L493.726318,355.845215 L500.272705,357.175781 L500.272705,384 L469.989014,384 Z M449.445068,352.013184 L462.537842,352.013184 L455.991455,321.197266 L449.445068,352.013184 Z" id="path-7"></path>
        <filter x="-50%" y="-50%" width="200%" height="200%" filterUnits="objectBoundingBox" id="filter-8">
            <feOffset dx="0" dy="2" in="SourceAlpha" result="shadowOffsetOuter1"></feOffset>
            <feGaussianBlur stdDeviation="2.5" in="shadowOffsetOuter1" result="shadowBlurOuter1"></feGaussianBlur>
            <feColorMatrix values="0 0 0 0 0   0 0 0 0 0   0 0 0 0 0  0 0 0 0.5 0" type="matrix" in="shadowBlurOuter1"></feColorMatrix>
        </filter>
    </defs>
    <g id="Page-1" stroke="none" stroke-width="1" fill="none" fill-rule="evenodd">
        <g id="logo" transform="translate(-16.000000, -16.000000)">
            <g id="bg">
                <g id="Oval-Copy">
                    <use fill="black" fill-opacity="1" filter="url(#filter-3)" xlink:href="#path-2"></use>
                    <use stroke="url(#linearGradient-1)" mask="url(#mask-4)" stroke-width="40" fill="#1D242B" fill-rule="evenodd" xlink:href="#path-2"></use>
                </g>
            </g>
            <g id="truck" transform="translate(92.890995, 190.521327)">
                <g id="Shape">
                    <use fill="black" fill-opacity="1" filter="url(#filter-6)" xlink:href="#path-5"></use>
                    <use fill="#FAFAFA" fill-rule="evenodd" xlink:href="#path-5"></use>
                </g>
                <path d="M142.642571,15.2990042 L388.36578,15.2990042" id="Line" stroke="#1D242B" stroke-width="8" stroke-linecap="square"></path>
                <path d="M268.919745,33.2978327 L388.36578,33.2978327" id="Line-Copy" stroke="#1D242B" stroke-width="8" stroke-linecap="square"></path>
                <path d="M142.642571,33.2978327 L253.801355,33.2978327" id="Line-Copy-4" stroke="#1D242B" stroke-width="8" stroke-linecap="square"></path>
                <path d="M268.919745,51.2966612 L388.36578,51.2966612" id="Line-Copy-2" stroke="#1D242B" stroke-width="8" stroke-linecap="square"></path>
                <path d="M142.642571,51.2966612 L253.801355,51.2966612" id="Line-Copy-5" stroke="#1D242B" stroke-width="8" stroke-linecap="square"></path>
                <path d="M142.642571,69.2954896 L388.36578,69.2954896" id="Line-Copy-3" stroke="#1D242B" stroke-width="8" stroke-linecap="square"></path>
            </g>
            <rect id="Rectangle" fill="#1D242B" x="86.2559242" y="281.516588" width="409.478673" height="128.909953"></rect>
            <g id="stiva-text">
                <use fill="black" fill-opacity="1" filter="url(#filter-8)" xlink:href="#path-7"></use>
                <use fill="#FAFAFA" fill-rule="evenodd" xlink:href="#path-7"></use>
            </g>
        </g>
    </g>
</svg>
